<svg xmlns="http://www.w3.org/2000/svg" xmlns:svg="http://www.w3.org/2000/svg" xmlns:xlink="http://www.w3.org/1999/xlink" id="svg8" width="250" height="250" version="1.1" viewBox="0 0 66.146 66.146"><title id="title907">iMessage logo</title><defs id="defs2"><linearGradient id="linearGradient899"><stop style="stop-color:#0cbd2a;stop-opacity:1" id="stop895" offset="0"/><stop style="stop-color:#5bf675;stop-opacity:1" id="stop897" offset="1"/></linearGradient><linearGradient id="linearGradient901" x1="-25.273" x2="-25.273" y1="207.521" y2="152.998" gradientTransform="matrix(0.98209275,0,0,0.98209275,-1.0651782,3.7961838)" gradientUnits="userSpaceOnUse" xlink:href="#linearGradient899"/></defs><metadata id="metadata5"/><g id="layer1" transform="translate(59.483067,-145.8456)"><g id="g963"><rect id="rect826" width="66.146" height="66.146" x="-59.483" y="145.846" rx="14.568" ry="14.568" style="opacity:1;fill:url(#linearGradient901);fill-opacity:1;stroke:none;stroke-width:1.33634758;stroke-linecap:square;stroke-linejoin:miter;stroke-miterlimit:4;stroke-dasharray:none;stroke-dashoffset:0;stroke-opacity:1;paint-order:markers stroke fill"/><path id="path922" d="m -26.410149,157.29606 a 24.278298,20.222157 0 0 0 -24.278105,20.22202 24.278298,20.222157 0 0 0 11.79463,17.31574 27.365264,20.222157 0 0 1 -4.245218,5.94228 23.85735,20.222157 0 0 0 9.86038,-3.87367 24.278298,20.222157 0 0 0 6.868313,0.83768 24.278298,20.222157 0 0 0 24.2781059,-20.22203 24.278298,20.222157 0 0 0 -24.2781059,-20.22202 z" style="opacity:1;fill:#fff;fill-opacity:1;stroke:none;stroke-width:1.56409621;stroke-linecap:square;stroke-linejoin:miter;stroke-miterlimit:4;stroke-dasharray:none;stroke-dashoffset:0;stroke-opacity:1;paint-order:markers stroke fill"/></g></g></svg>