<?xml version="1.0" encoding="UTF-8"?>
<svg id="Layer_2" data-name="Layer 2" xmlns="http://www.w3.org/2000/svg" xmlns:xlink="http://www.w3.org/1999/xlink" viewBox="0 0 509.6 600.17">
  <defs>
    <style>
      .cls-1 {
        fill: none;
      }

      .cls-2 {
        fill: #c09000;
      }

      .cls-3 {
        fill: #bb4715;
      }

      .cls-4 {
        fill: #593779;
      }

      .cls-5 {
        fill: #b2211e;
      }

      .cls-6 {
        fill: #0a7596;
      }

      .cls-7 {
        clip-path: url(#clippath);
      }

      .cls-8 {
        fill: #af1160;
      }
    </style>
    <clipPath id="clippath">
      <path class="cls-1" d="M11.8,182.13v100.46h319.07v-100.46H11.8ZM322.1,234.43l-1.17.79c-.75-.15-1.48-.28-2.22-.43-7.1-16.42-15.29-32.13-25.83-47.44h.03c11.24,1.56,23.07,3.56,36.16,6.11l.79,1.17-7.75,39.8Z"/>
    </clipPath>
  </defs>
  <g id="Layer_1-2" data-name="Layer 1">
    <g>
      <g>
        <path class="cls-6" d="M29.21,280.58l-15.42-37.5c147.62-60.69,206.52-69.78,315.07-48.65l-7.75,39.8c-94.2-18.34-143.94-14.48-291.91,46.35Z"/>
        <path class="cls-2" d="M346.09,310.19c-1.8-5.23-3.55-10.4-5.28-15.49-29.74-87.61-51.23-150.91-199.46-224.2l17.97-36.35c74.53,36.85,125.03,74.68,158.95,119.06,31.17,40.78,45.63,83.36,60.93,128.45,1.71,5.05,3.45,10.16,5.23,15.34l-38.34,13.19Z"/>
        <path class="cls-3" d="M323.39,396.39l-30.6-26.61,2.89-3.32c65.65-75.43,113.08-129.93,101.97-302.18l40.46-2.61c12.18,188.89-45.3,254.94-111.85,331.41l-2.88,3.31Z"/>
        <path class="cls-5" d="M304.1,401.09c-25.95,0-54.38-2.99-95.69-7.61l4.5-40.3c112.38,12.56,119.1,13.31,266.61-31.11l11.69,38.82c-98.86,29.77-138.69,40.2-187.12,40.2Z"/>
        <path class="cls-8" d="M366.98,548.48c-157.82-87.75-180.12-153.23-210.98-243.87-1.56-4.57-3.14-9.21-4.76-13.95l38.34-13.19c1.64,4.77,3.24,9.46,4.81,14.06,30.01,88.14,48.13,141.34,192.3,221.5l-19.7,35.44Z"/>
        <path class="cls-4" d="M98.37,541.1c-5.68-88.02,2.62-156.65,26.13-215.98,22.1-55.81,55.48-96.72,87.77-133.85l30.6,26.61c-67.98,78.15-115.23,146.9-104.03,320.61l-40.46,2.61Z"/>
        <g class="cls-7">
          <path class="cls-6" d="M29.21,280.58l-15.42-37.5c147.62-60.69,206.52-69.78,315.07-48.65l-7.75,39.8c-94.2-18.34-143.94-14.48-291.91,46.35Z"/>
        </g>
      </g>
      <path d="M86.69,556.51c-29.99-22.86-49.84-54.32-60.35-91.3-13.08-44.02-22.77-85.22-23.65-131.03-2.12-47.1-8.83-79.7,12.46-124.21,12.46-28.53,25.65-63.39,41.74-87.49,18.09-26.18,38.45-51.65,64.98-69.86,16.8-11.23,36.31-20.75,54.49-30.21,18.63-9.61,37.55-17.85,56.26-20.17,39.54-4.47,80.24-2.32,118.96,7,32.17,7.44,62.18,15.16,84.6,39,23.3,24.03,44.55,50.17,52.67,82.44,10.03,39.91,19.57,80.49,20.01,121.71.29,25.17,1.68,51.1-.4,75.66-4.28,37.31-24.94,77.05-37.63,113.52-9.49,26.81-22.79,49.53-42.48,69.7-18.7,19.93-36.11,39.47-59.68,51.93-30.37,14.55-63.66,27.12-96.84,33.71-28.41,4.17-59.8,4.39-88.78.31-33.65-6.28-67.86-20.26-95.96-40.39l-.42-.32ZM105.24,133.25c-18.78,26.63-34.97,57.1-41.37,89.05-4.53,26.97-3.05,57.81-2.37,85.91,2.16,35.06,5.85,73.13,14.09,106.54,7.1,24.86,18.91,48.31,33.51,69.62,19.92,28.52,48.5,45.99,80.68,56.48,36.52,12.28,74.49,13.63,110.38.22,41.63-13.41,73.95-36.96,102.44-69.88,37.54-42.84,48.94-100.82,53.57-156.22,3.16-28.54-.07-56.09-6.04-84.28-6.12-32.32-11.98-65.74-31.53-92.64-24.67-37.97-55.1-72.34-100.86-83.85-38.95-10.93-82.02-6.97-119.69,6.5-36.62,14.43-68.76,40.74-92.48,72.13l-.32.44Z"/>
    </g>
  </g>
</svg>