<?xml version="1.0" encoding="UTF-8"?>
<svg id="Layer_1" data-name="Layer 1" xmlns="http://www.w3.org/2000/svg" viewBox="0 0 149.55 149.57">
  <defs>
    <style>
      .cls-1 {
        fill: #ed0775;
      }
    </style>
  </defs>
  <path class="cls-1" d="M149.41,72.46l-.02-.21-.16-.09c-3.17-1.92-7.33-3.01-11.4-3.09-.08-.54-.59-4.35-.65-4.89,3.89-1.1,7.61-3.21,10.23-5.92l.14-.13-.04-.21c-.19-1.45-.74-3.47-1.24-4.69l-.08-.18-.2-.05c-3.58-1.02-7.86-.99-11.79,0-.19-.51-1.64-4.02-1.85-4.51,3.46-2.11,6.5-5.11,8.33-8.35l.1-.16-.07-.2c-.52-1.25-1.58-3.06-2.42-4.2l-.11-.16h-.22c-3.68-.08-7.79,1.05-11.41,3-.32-.44-2.68-3.51-3-3.94,2.82-2.91,4.98-6.6,5.91-10.21l.05-.2-.14-.15c-.84-1.11-2.31-2.6-3.41-3.47l-.15-.11-.21.03c-3.62.92-7.29,3.08-10.21,5.89-.45-.34-3.51-2.74-3.95-3.1,1.95-3.44,3.09-7.42,3.09-11.1,0-.1-.02-.5-.02-.5l-.16-.12c-1.13-.89-2.92-1.91-4.22-2.44l-.18-.06-.16.09c-3.25,1.81-6.23,4.83-8.32,8.29-.52-.2-4.25-1.77-4.74-1.98.49-1.95.8-3.96.8-5.97s-.24-4.01-.8-5.81l-.04-.19-.2-.08c-1.23-.53-3.19-1.07-4.65-1.28l-.22-.03-.13.14c-2.69,2.6-4.8,6.31-5.91,10.21-.55-.09-4.41-.57-4.99-.63-.05-4.04-1.14-8.17-3.06-11.38l-.1-.18h-.2c-1.39-.18-3.5-.18-4.85,0h-.22s-.1.19-.1.19c-1.9,3.18-2.98,7.31-3.05,11.37-.56.07-4.47.55-5.04.64-1.12-3.91-3.23-7.64-5.91-10.23l-.15-.15-.22.03c-1.44.21-3.43.75-4.66,1.25l-.19.08-.07.19c-.5,1.83-.78,3.84-.78,5.88s.31,3.99.78,5.92c-.49.21-4.25,1.83-4.75,2.03-2.11-3.47-5.09-6.51-8.33-8.33l-.18-.1-.2.07c-1.24.55-3.05,1.59-4.19,2.44l-.18.11v.54c0,3.63,1.12,7.63,3.06,11.1-.42.35-3.25,2.56-3.67,2.9-2.91-2.81-6.59-4.98-10.23-5.92l-.19-.04-.14.13c-1.11.83-2.61,2.3-3.47,3.42l-.12.16.05.19c.91,3.61,3.07,7.3,5.88,10.24-.31.43-2.77,3.64-3.11,4.08-3.52-1.97-7.62-3.13-11.38-3.08h-.19s-.12.18-.12.18c-.82,1.09-1.86,2.86-2.43,4.21l-.08.18.1.18c1.8,3.23,4.85,6.25,8.33,8.36-.19.5-1.62,3.97-1.83,4.48-4-.99-8.26-1-11.82.03l-.19.05-.07.17c-.52,1.25-1.07,3.21-1.27,4.69l-.02.2.14.16c2.6,2.67,6.32,4.78,10.22,5.86-.08.55-.58,4.4-.65,4.93-4.05.08-8.22,1.15-11.4,3.06l-.18.1-.02.21c-.08.7-.13,1.56-.13,2.44s.05,1.73.13,2.42l.02.2.18.09c3.18,1.9,7.31,2.99,11.38,3.05.08.56.62,4.51.69,5.05-3.91,1.15-7.6,3.28-10.2,5.95l-.14.17.02.18c.23,1.46.76,3.47,1.27,4.68l.08.18.18.06c3.6,1.03,7.87.99,11.82,0,.2.5,1.73,4,1.94,4.5-3.46,2.08-6.5,5.08-8.33,8.32l-.09.18.07.19c.53,1.27,1.59,3.08,2.44,4.2l.13.16h.18c3.72.06,7.83-1.04,11.4-3.01.33.42,2.74,3.56,3.06,3.99-2.8,2.87-4.98,6.54-5.9,10.2l-.05.19.12.16c.86,1.1,2.33,2.56,3.43,3.45l.16.14.19-.06c3.61-.9,7.28-3.05,10.23-5.87.45.35,3.57,2.75,4.03,3.09-1.92,3.52-3.04,7.55-3.04,11.2v.41l.18.14c1.08.83,2.86,1.84,4.18,2.43l.18.07.19-.09c3.25-1.81,6.26-4.86,8.37-8.37.49.2,3.92,1.59,4.42,1.79-.49,1.93-.77,3.92-.77,5.89,0,2.06.27,4.07.79,5.88l.05.19.2.07c1.23.53,3.21,1.07,4.67,1.3l.22.03.14-.16c2.69-2.62,4.8-6.34,5.85-10.2.57.09,4.51.65,5.06.71.08,4.07,1.17,8.21,3.08,11.37l.08.17.22.02c1.4.18,3.48.18,4.85,0l.2-.02.1-.17c1.89-3.16,2.98-7.3,3.08-11.39.55-.08,4.24-.59,4.79-.68,1.09,3.92,3.21,7.61,5.9,10.23l.15.13.18-.02c1.47-.23,3.47-.75,4.71-1.25l.18-.09.06-.18c.52-1.82.76-3.82.76-5.88s-.28-4.02-.76-5.97c.51-.19,4.09-1.74,4.59-1.97,2.11,3.48,5.11,6.52,8.34,8.35l.16.08.19-.07c1.29-.53,3.1-1.58,4.22-2.45l.16-.1s.01-.43.01-.55c0-3.58-1.13-7.58-3.02-11.09.42-.33,3.38-2.63,3.8-2.97,2.95,2.81,6.63,4.96,10.25,5.9l.19.05.15-.14c1.1-.86,2.6-2.35,3.46-3.42l.13-.18-.07-.18c-.9-3.6-3.05-7.29-5.86-10.23.33-.43,2.71-3.57,3.03-4.01,3.58,1.97,7.69,3.1,11.38,3.02h.2l.12-.15c.88-1.13,1.9-2.89,2.43-4.23l.08-.17-.1-.18c-1.77-3.18-4.79-6.2-8.25-8.38.2-.5,1.62-3.95,1.83-4.45,3.93,1.01,8.19,1.04,11.77,0l.17-.06.08-.18c.53-1.26,1.06-3.22,1.28-4.68l.02-.2-.15-.15c-2.6-2.7-6.3-4.78-10.17-5.89.08-.54.61-4.24.66-4.79,4.09-.07,8.25-1.16,11.42-3.07l.16-.1.02-.21c.1-.67.13-1.56.13-2.42s-.04-1.73-.13-2.41ZM74.81,130.38c-30.88,0-56.02-25.14-56.02-56.04s25.14-56.03,56.02-56.03,56.03,25.14,56.03,56.03-25.13,56.04-56.03,56.04Z"/>
  <path class="cls-1" d="M74.81,25.05c-27.17,0-49.28,22.12-49.28,49.29s22.11,49.3,49.28,49.3,49.3-22.11,49.3-49.3-22.12-49.29-49.3-49.29ZM81.01,32.97c.47-.39,1.1-.26,1.72-.13,9.9,2.4,17.18,6.58,24.28,14.04.5.53.77,1.03.77,1.47,0,.04-.01.11-.01.17-.15.68-.91,1.04-1.59,1.37l-20.74,10.04c-.82.39-1.58.43-2.18.05-.61-.35-.99-1.03-1.06-1.92l-1.67-22.97c-.07-1.1.08-1.77.48-2.11ZM42.51,47.05h.01c7.09-7.45,14.35-11.65,24.26-14.03.61-.14,1.26-.26,1.7.13.42.33.57,1,.49,2.11l-1.68,22.97c-.05.88-.42,1.58-1.04,1.92-.6.36-1.39.34-2.18-.04l-20.73-10.04c-.68-.34-1.47-.69-1.61-1.38-.07-.47.16-1.02.76-1.64ZM37.59,89.63c-.9.62-1.56.84-2.07.65-.56-.19-.75-.82-.93-1.43-2.93-9.78-2.93-18.17-.04-28.04.25-.85.61-1.31,1.06-1.48.66-.24,1.36.25,1.98.68l19.05,12.96c.72.48,1.14,1.14,1.14,1.86s-.42,1.36-1.11,1.86l-19.08,12.93ZM68.86,116.61c-.46.37-1.09.26-1.72.1-9.9-2.36-17.18-6.55-24.26-14.02-.52-.53-.76-1.01-.76-1.43,0-.08,0-.12.01-.21.1-.65.9-1.04,1.56-1.36l20.74-10.06c.81-.38,1.59-.4,2.2-.04.6.35.97,1.03,1.04,1.9l1.68,23.02c.07,1.09-.1,1.76-.5,2.1ZM74.77,87.91c-7.43,0-13.47-6.04-13.47-13.46,0-4.53,2.26-8.74,6.06-11.24,1.25-.84,2.94-.48,3.76.77.83,1.25.49,2.94-.77,3.77-2.27,1.49-3.61,4-3.61,6.71,0,4.42,3.6,8.03,8.03,8.03s8.03-3.61,8.03-8.03c0-2.71-1.34-5.23-3.62-6.72-1.25-.83-1.59-2.52-.76-3.77.82-1.24,2.51-1.6,3.76-.77,3.79,2.51,6.06,6.71,6.06,11.26,0,7.42-6.04,13.46-13.47,13.46ZM107.04,102.41c-7.07,7.44-14.3,11.63-24.26,14.01-.84.21-1.43.15-1.79-.15-.52-.44-.45-1.31-.4-2.07l1.65-22.99c.1-.89.46-1.57,1.09-1.94.61-.33,1.4-.3,2.17.07l20.74,10.04c.97.48,1.49.95,1.59,1.46.1.58-.32,1.09-.78,1.56ZM114.03,59.23c.56.19.78.81.95,1.42,2.91,9.79,2.91,18.17,0,28.05-.24.85-.58,1.32-1.03,1.5-.65.2-1.36-.27-1.96-.71l-19.07-12.94c-.73-.49-1.17-1.16-1.17-1.87s.42-1.37,1.17-1.88l19.07-12.93c.86-.62,1.53-.81,2.04-.63Z"/>
</svg>